<svg width="1400" height="2000" viewBox="0 0 1400 2000" fill="none" xmlns="http://www.w3.org/2000/svg">
<g opacity="0.202544">
<mask id="mask0_20_433" style="mask-type:luminance" maskUnits="userSpaceOnUse" x="0" y="0" width="1400" height="511">
<rect width="1400" height="511" transform="matrix(-1 0 0 1 1400 0)" fill="white"/>
</mask>
<g mask="url(#mask0_20_433)">
<g opacity="0.832799" filter="url(#filter0_f_20_433)">
<ellipse cx="249.882" cy="205.828" rx="249.882" ry="205.828" transform="matrix(-0.885732 0.464197 0.443893 0.89608 1188.56 -176.762)" fill="url(#paint0_linear_20_433)"/>
</g>
<g opacity="0.663063" filter="url(#filter1_f_20_433)">
<path fill-rule="evenodd" clip-rule="evenodd" d="M433.293 -144.131C427.492 -143.64 422.093 -140.811 418.297 -136.272L288.313 19.1406C282.57 26.0071 281.397 35.6622 285.338 43.6193L349.12 172.375C353.062 180.332 361.346 185.031 370.122 184.288L568.764 167.473C574.565 166.982 579.964 164.153 583.76 159.614L713.744 4.2014C719.487 -2.66506 720.66 -12.3202 716.718 -20.2773L652.936 -149.033C648.995 -156.99 640.711 -161.689 631.934 -160.946L433.293 -144.131Z" fill="url(#paint1_linear_20_433)"/>
</g>
<g filter="url(#filter2_f_20_433)">
<rect width="383.498" height="340.638" transform="matrix(0.236736 0.976626 0.963731 -0.24715 659.305 -43.8418)" fill="url(#paint2_linear_20_433)" fill-opacity="0.39"/>
</g>
<g opacity="0.60605" filter="url(#filter3_f_20_433)">
<path fill-rule="evenodd" clip-rule="evenodd" d="M484.918 399.844C486.18 420.684 509.967 431.069 525.418 417.527L752.921 218.128C766.887 205.887 763.489 182.802 746.637 175.444L500.548 68.0015C483.697 60.644 465.191 74.1657 466.332 93.0027L484.918 399.844Z" fill="url(#paint3_linear_20_433)"/>
</g>
<g opacity="0.739328" filter="url(#filter4_f_20_433)">
<path fill-rule="evenodd" clip-rule="evenodd" d="M1134.12 172.342C1135.56 179.767 1140.58 185.913 1147.44 188.661L1325.73 260.101C1333.11 263.061 1341.5 261.629 1347.6 256.368L1486.83 136.203C1492.92 130.942 1495.75 122.692 1494.2 114.695L1456.76 -78.3071C1455.32 -85.7317 1450.3 -91.8782 1443.45 -94.6265L1265.16 -166.066C1257.77 -169.026 1249.38 -167.594 1243.28 -162.333L1104.06 -42.1683C1097.96 -36.907 1095.13 -28.6571 1096.68 -20.6604L1134.12 172.342Z" fill="url(#paint4_linear_20_433)"/>
</g>
<g filter="url(#filter5_f_20_433)">
<ellipse cx="176.468" cy="203.645" rx="176.468" ry="203.645" transform="matrix(0.632128 0.774864 0.757034 -0.653376 -155.914 109.83)" fill="url(#paint5_linear_20_433)"/>
</g>
</g>
</g>
<defs>
<filter id="filter0_f_20_433" x="732.101" y="-181.223" width="652.99" height="609.79" filterUnits="userSpaceOnUse" color-interpolation-filters="sRGB">
<feFlood flood-opacity="0" result="BackgroundImageFix"/>
<feBlend mode="normal" in="SourceGraphic" in2="BackgroundImageFix" result="shape"/>
<feGaussianBlur stdDeviation="43.4925" result="effect1_foregroundBlur_20_433"/>
</filter>
<filter id="filter1_f_20_433" x="163.423" y="-280.628" width="675.209" height="584.597" filterUnits="userSpaceOnUse" color-interpolation-filters="sRGB">
<feFlood flood-opacity="0" result="BackgroundImageFix"/>
<feBlend mode="normal" in="SourceGraphic" in2="BackgroundImageFix" result="shape"/>
<feGaussianBlur stdDeviation="59.8022" result="effect1_foregroundBlur_20_433"/>
</filter>
<filter id="filter2_f_20_433" x="545.137" y="-242.199" width="647.406" height="687.058" filterUnits="userSpaceOnUse" color-interpolation-filters="sRGB">
<feFlood flood-opacity="0" result="BackgroundImageFix"/>
<feBlend mode="normal" in="SourceGraphic" in2="BackgroundImageFix" result="shape"/>
<feGaussianBlur stdDeviation="57.0839" result="effect1_foregroundBlur_20_433"/>
</filter>
<filter id="filter3_f_20_433" x="352.113" y="-48.2049" width="523.676" height="585.998" filterUnits="userSpaceOnUse" color-interpolation-filters="sRGB">
<feFlood flood-opacity="0" result="BackgroundImageFix"/>
<feBlend mode="normal" in="SourceGraphic" in2="BackgroundImageFix" result="shape"/>
<feGaussianBlur stdDeviation="57.0839" result="effect1_foregroundBlur_20_433"/>
</filter>
<filter id="filter4_f_20_433" x="976.661" y="-287.188" width="637.56" height="668.412" filterUnits="userSpaceOnUse" color-interpolation-filters="sRGB">
<feFlood flood-opacity="0" result="BackgroundImageFix"/>
<feBlend mode="normal" in="SourceGraphic" in2="BackgroundImageFix" result="shape"/>
<feGaussianBlur stdDeviation="59.8022" result="effect1_foregroundBlur_20_433"/>
</filter>
<filter id="filter5_f_20_433" x="-183.799" y="-180.576" width="587.203" height="588.175" filterUnits="userSpaceOnUse" color-interpolation-filters="sRGB">
<feFlood flood-opacity="0" result="BackgroundImageFix"/>
<feBlend mode="normal" in="SourceGraphic" in2="BackgroundImageFix" result="shape"/>
<feGaussianBlur stdDeviation="51.6474" result="effect1_foregroundBlur_20_433"/>
</filter>
<linearGradient id="paint0_linear_20_433" x1="-189.542" y1="-256.398" x2="-98.502" y2="313.438" gradientUnits="userSpaceOnUse">
<stop stop-color="#B2EBF2"/>
<stop offset="1" stop-color="#D1C4E9"/>
</linearGradient>
<linearGradient id="paint1_linear_20_433" x1="636.866" y1="-231.421" x2="581.211" y2="220.383" gradientUnits="userSpaceOnUse">
<stop stop-color="#651FFF"/>
<stop offset="0.668612" stop-color="#00E5FF"/>
<stop offset="1" stop-color="#FF4081"/>
</linearGradient>
<linearGradient id="paint2_linear_20_433" x1="-183.806" y1="83.969" x2="130.317" y2="486.504" gradientUnits="userSpaceOnUse">
<stop stop-color="#D81B60"/>
<stop offset="0.59346" stop-color="#84FFFF"/>
<stop offset="1" stop-color="#311B92"/>
</linearGradient>
<linearGradient id="paint3_linear_20_433" x1="-6.26206" y1="444.241" x2="275.8" y2="-201.498" gradientUnits="userSpaceOnUse">
<stop stop-color="#651FFF"/>
<stop offset="0.668612" stop-color="#00E5FF"/>
<stop offset="1" stop-color="#FF4081"/>
</linearGradient>
<linearGradient id="paint4_linear_20_433" x1="733.257" y1="-59.0393" x2="1257.36" y2="-320.741" gradientUnits="userSpaceOnUse">
<stop stop-color="#FF4081"/>
<stop offset="1" stop-color="#F8BBD0"/>
</linearGradient>
<linearGradient id="paint5_linear_20_433" x1="-53.2386" y1="81.1639" x2="125.941" y2="470.74" gradientUnits="userSpaceOnUse">
<stop stop-color="#651FFF"/>
<stop offset="1" stop-color="#00BCD4"/>
</linearGradient>
</defs>
</svg>
